<svg width="199" height="45" viewBox="0 0 199 45" fill="none" xmlns="http://www.w3.org/2000/svg"><path d="M175.796 13.424v4.5h9.011v13.652h5.182V17.924H199v-4.5h-23.204Zm-1.427 4.5v-4.5H155.37c-3.454.305-5.031 3.203-5.106 9-.226 6.025 1.577 8.924 5.106 9.152h18.999v-4.5H155.37v-2.364h18.999v-4.5H155.37v-2.288h18.999Z" fill="#fff"/><path d="M151.991 13.424h-10.138l-9.387 5.72v-5.72h-5.256v18.152h5.256v-5.644l9.237 5.644h10.138l-14.869-9 15.019-9.152Zm-26.659 4.5v-4.5h-18.998c-3.455.305-5.032 3.203-5.107 9-.225 6.025 1.577 8.924 5.107 9.152h18.998v-4.5h-18.998v-9.152h18.998Zm-25.456 4.5c-.076-5.797-1.653-8.695-5.107-9H80.877c-3.455.305-5.032 3.203-5.107 9-.225 6.025 1.577 8.924 5.107 9.152h13.892c3.53-.229 5.257-3.05 5.106-9.152Zm-5.182 4.652H80.802v-9.152h13.892v9.152Zm-20.501-1.22c-.075-3.585-1.502-5.415-4.505-5.644H53.242v-2.364h19.524v-4.5H53.242c-3.079.228-4.43 2.059-4.506 5.643-.225 3.738 1.427 5.568 4.506 5.72h16.446V27H49.562v4.5h20.126c3.153-.076 4.73-1.83 4.505-5.644Z" fill="#fff"/><path d="M17.572 40.347 22.152 45l22.154-22.5-2.328-2.364L23.805 38.67h-4.656l-1.577 1.677ZM39.875 18l-2.328-2.364-13.066 13.27h-4.656l-6.759 6.865 2.328 2.365 5.632-5.72h4.656L39.875 18ZM26.734 4.653 22.153 0 0 22.5l2.328 2.364L20.5 6.331h4.656l1.577-1.678Zm8.786 8.923-2.328-2.364-9.237 9.457h-4.58L8.785 31.425l2.253 2.288 9.537-9.61h4.58L35.52 13.576Zm-4.28-4.347-2.33-2.365-6.007 6.102h-4.656L4.43 27l2.327 2.364L19.45 16.398h4.656l7.134-7.17Z" fill="#FFC107"/></svg>